<mxfile host="app.diagrams.net" modified="2024-05-22T21:25:08.309Z" agent="Mozilla/5.0 (Windows NT 10.0; Win64; x64) AppleWebKit/537.36 (KHTML, like Gecko) Chrome/122.0.0.0 YaBrowser/24.4.0.0 Safari/537.36" etag="Wvz6GCufUsvDiINs4hP-" version="24.4.6" type="device" pages="3">
  <diagram id="Tg3g7S5Jcqq7kGiZQCCC" name="Логическая модель (ER)">
    <mxGraphModel dx="3037" dy="3084" grid="1" gridSize="10" guides="1" tooltips="1" connect="1" arrows="1" fold="1" page="1" pageScale="1" pageWidth="827" pageHeight="1169" math="0" shadow="0">
      <root>
        <mxCell id="0" />
        <mxCell id="1" parent="0" />
        <mxCell id="dqAtnIHSte1YufDKMeZw-130" value="user" style="shape=table;startSize=30;container=1;collapsible=1;childLayout=tableLayout;fixedRows=1;rowLines=0;fontStyle=1;align=center;resizeLast=1;html=1;" vertex="1" parent="1">
          <mxGeometry x="-1220" y="-1920" width="180" height="270.0000000000002" as="geometry" />
        </mxCell>
        <mxCell id="dqAtnIHSte1YufDKMeZw-131" value="" style="shape=tableRow;horizontal=0;startSize=0;swimlaneHead=0;swimlaneBody=0;fillColor=none;collapsible=0;dropTarget=0;points=[[0,0.5],[1,0.5]];portConstraint=eastwest;top=0;left=0;right=0;bottom=1;" vertex="1" parent="dqAtnIHSte1YufDKMeZw-130">
          <mxGeometry y="30" width="180" height="30" as="geometry" />
        </mxCell>
        <mxCell id="dqAtnIHSte1YufDKMeZw-132" value="PK" style="shape=partialRectangle;connectable=0;fillColor=none;top=0;left=0;bottom=0;right=0;fontStyle=1;overflow=hidden;whiteSpace=wrap;html=1;" vertex="1" parent="dqAtnIHSte1YufDKMeZw-131">
          <mxGeometry width="30" height="30" as="geometry">
            <mxRectangle width="30" height="30" as="alternateBounds" />
          </mxGeometry>
        </mxCell>
        <mxCell id="dqAtnIHSte1YufDKMeZw-133" value="id" style="shape=partialRectangle;connectable=0;fillColor=none;top=0;left=0;bottom=0;right=0;align=left;spacingLeft=6;fontStyle=5;overflow=hidden;whiteSpace=wrap;html=1;" vertex="1" parent="dqAtnIHSte1YufDKMeZw-131">
          <mxGeometry x="30" width="150" height="30" as="geometry">
            <mxRectangle width="150" height="30" as="alternateBounds" />
          </mxGeometry>
        </mxCell>
        <mxCell id="dqAtnIHSte1YufDKMeZw-134" value="" style="shape=tableRow;horizontal=0;startSize=0;swimlaneHead=0;swimlaneBody=0;fillColor=none;collapsible=0;dropTarget=0;points=[[0,0.5],[1,0.5]];portConstraint=eastwest;top=0;left=0;right=0;bottom=0;" vertex="1" parent="dqAtnIHSte1YufDKMeZw-130">
          <mxGeometry y="60" width="180" height="30" as="geometry" />
        </mxCell>
        <mxCell id="dqAtnIHSte1YufDKMeZw-135" value="" style="shape=partialRectangle;connectable=0;fillColor=none;top=0;left=0;bottom=0;right=0;editable=1;overflow=hidden;whiteSpace=wrap;html=1;" vertex="1" parent="dqAtnIHSte1YufDKMeZw-134">
          <mxGeometry width="30" height="30" as="geometry">
            <mxRectangle width="30" height="30" as="alternateBounds" />
          </mxGeometry>
        </mxCell>
        <mxCell id="dqAtnIHSte1YufDKMeZw-136" value="name" style="shape=partialRectangle;connectable=0;fillColor=none;top=0;left=0;bottom=0;right=0;align=left;spacingLeft=6;overflow=hidden;whiteSpace=wrap;html=1;" vertex="1" parent="dqAtnIHSte1YufDKMeZw-134">
          <mxGeometry x="30" width="150" height="30" as="geometry">
            <mxRectangle width="150" height="30" as="alternateBounds" />
          </mxGeometry>
        </mxCell>
        <mxCell id="dqAtnIHSte1YufDKMeZw-137" value="" style="shape=tableRow;horizontal=0;startSize=0;swimlaneHead=0;swimlaneBody=0;fillColor=none;collapsible=0;dropTarget=0;points=[[0,0.5],[1,0.5]];portConstraint=eastwest;top=0;left=0;right=0;bottom=0;" vertex="1" parent="dqAtnIHSte1YufDKMeZw-130">
          <mxGeometry y="90" width="180" height="30" as="geometry" />
        </mxCell>
        <mxCell id="dqAtnIHSte1YufDKMeZw-138" value="" style="shape=partialRectangle;connectable=0;fillColor=none;top=0;left=0;bottom=0;right=0;editable=1;overflow=hidden;whiteSpace=wrap;html=1;" vertex="1" parent="dqAtnIHSte1YufDKMeZw-137">
          <mxGeometry width="30" height="30" as="geometry">
            <mxRectangle width="30" height="30" as="alternateBounds" />
          </mxGeometry>
        </mxCell>
        <mxCell id="dqAtnIHSte1YufDKMeZw-139" value="surname" style="shape=partialRectangle;connectable=0;fillColor=none;top=0;left=0;bottom=0;right=0;align=left;spacingLeft=6;overflow=hidden;whiteSpace=wrap;html=1;" vertex="1" parent="dqAtnIHSte1YufDKMeZw-137">
          <mxGeometry x="30" width="150" height="30" as="geometry">
            <mxRectangle width="150" height="30" as="alternateBounds" />
          </mxGeometry>
        </mxCell>
        <mxCell id="dqAtnIHSte1YufDKMeZw-140" value="" style="shape=tableRow;horizontal=0;startSize=0;swimlaneHead=0;swimlaneBody=0;fillColor=none;collapsible=0;dropTarget=0;points=[[0,0.5],[1,0.5]];portConstraint=eastwest;top=0;left=0;right=0;bottom=0;" vertex="1" parent="dqAtnIHSte1YufDKMeZw-130">
          <mxGeometry y="120" width="180" height="30" as="geometry" />
        </mxCell>
        <mxCell id="dqAtnIHSte1YufDKMeZw-141" value="" style="shape=partialRectangle;connectable=0;fillColor=none;top=0;left=0;bottom=0;right=0;editable=1;overflow=hidden;whiteSpace=wrap;html=1;" vertex="1" parent="dqAtnIHSte1YufDKMeZw-140">
          <mxGeometry width="30" height="30" as="geometry">
            <mxRectangle width="30" height="30" as="alternateBounds" />
          </mxGeometry>
        </mxCell>
        <mxCell id="dqAtnIHSte1YufDKMeZw-142" value="patronymic" style="shape=partialRectangle;connectable=0;fillColor=none;top=0;left=0;bottom=0;right=0;align=left;spacingLeft=6;overflow=hidden;whiteSpace=wrap;html=1;" vertex="1" parent="dqAtnIHSte1YufDKMeZw-140">
          <mxGeometry x="30" width="150" height="30" as="geometry">
            <mxRectangle width="150" height="30" as="alternateBounds" />
          </mxGeometry>
        </mxCell>
        <mxCell id="dqAtnIHSte1YufDKMeZw-143" style="shape=tableRow;horizontal=0;startSize=0;swimlaneHead=0;swimlaneBody=0;fillColor=none;collapsible=0;dropTarget=0;points=[[0,0.5],[1,0.5]];portConstraint=eastwest;top=0;left=0;right=0;bottom=0;" vertex="1" parent="dqAtnIHSte1YufDKMeZw-130">
          <mxGeometry y="150" width="180" height="30" as="geometry" />
        </mxCell>
        <mxCell id="dqAtnIHSte1YufDKMeZw-144" style="shape=partialRectangle;connectable=0;fillColor=none;top=0;left=0;bottom=0;right=0;editable=1;overflow=hidden;whiteSpace=wrap;html=1;" vertex="1" parent="dqAtnIHSte1YufDKMeZw-143">
          <mxGeometry width="30" height="30" as="geometry">
            <mxRectangle width="30" height="30" as="alternateBounds" />
          </mxGeometry>
        </mxCell>
        <mxCell id="dqAtnIHSte1YufDKMeZw-145" value="phone" style="shape=partialRectangle;connectable=0;fillColor=none;top=0;left=0;bottom=0;right=0;align=left;spacingLeft=6;overflow=hidden;whiteSpace=wrap;html=1;" vertex="1" parent="dqAtnIHSte1YufDKMeZw-143">
          <mxGeometry x="30" width="150" height="30" as="geometry">
            <mxRectangle width="150" height="30" as="alternateBounds" />
          </mxGeometry>
        </mxCell>
        <mxCell id="dqAtnIHSte1YufDKMeZw-158" style="shape=tableRow;horizontal=0;startSize=0;swimlaneHead=0;swimlaneBody=0;fillColor=none;collapsible=0;dropTarget=0;points=[[0,0.5],[1,0.5]];portConstraint=eastwest;top=0;left=0;right=0;bottom=0;" vertex="1" parent="dqAtnIHSte1YufDKMeZw-130">
          <mxGeometry y="180" width="180" height="30" as="geometry" />
        </mxCell>
        <mxCell id="dqAtnIHSte1YufDKMeZw-159" style="shape=partialRectangle;connectable=0;fillColor=none;top=0;left=0;bottom=0;right=0;editable=1;overflow=hidden;whiteSpace=wrap;html=1;" vertex="1" parent="dqAtnIHSte1YufDKMeZw-158">
          <mxGeometry width="30" height="30" as="geometry">
            <mxRectangle width="30" height="30" as="alternateBounds" />
          </mxGeometry>
        </mxCell>
        <mxCell id="dqAtnIHSte1YufDKMeZw-160" value="login" style="shape=partialRectangle;connectable=0;fillColor=none;top=0;left=0;bottom=0;right=0;align=left;spacingLeft=6;overflow=hidden;whiteSpace=wrap;html=1;" vertex="1" parent="dqAtnIHSte1YufDKMeZw-158">
          <mxGeometry x="30" width="150" height="30" as="geometry">
            <mxRectangle width="150" height="30" as="alternateBounds" />
          </mxGeometry>
        </mxCell>
        <mxCell id="dqAtnIHSte1YufDKMeZw-149" style="shape=tableRow;horizontal=0;startSize=0;swimlaneHead=0;swimlaneBody=0;fillColor=none;collapsible=0;dropTarget=0;points=[[0,0.5],[1,0.5]];portConstraint=eastwest;top=0;left=0;right=0;bottom=0;" vertex="1" parent="dqAtnIHSte1YufDKMeZw-130">
          <mxGeometry y="210" width="180" height="30" as="geometry" />
        </mxCell>
        <mxCell id="dqAtnIHSte1YufDKMeZw-150" style="shape=partialRectangle;connectable=0;fillColor=none;top=0;left=0;bottom=0;right=0;editable=1;overflow=hidden;whiteSpace=wrap;html=1;" vertex="1" parent="dqAtnIHSte1YufDKMeZw-149">
          <mxGeometry width="30" height="30" as="geometry">
            <mxRectangle width="30" height="30" as="alternateBounds" />
          </mxGeometry>
        </mxCell>
        <mxCell id="dqAtnIHSte1YufDKMeZw-151" value="password" style="shape=partialRectangle;connectable=0;fillColor=none;top=0;left=0;bottom=0;right=0;align=left;spacingLeft=6;overflow=hidden;whiteSpace=wrap;html=1;" vertex="1" parent="dqAtnIHSte1YufDKMeZw-149">
          <mxGeometry x="30" width="150" height="30" as="geometry">
            <mxRectangle width="150" height="30" as="alternateBounds" />
          </mxGeometry>
        </mxCell>
        <mxCell id="dqAtnIHSte1YufDKMeZw-152" style="shape=tableRow;horizontal=0;startSize=0;swimlaneHead=0;swimlaneBody=0;fillColor=none;collapsible=0;dropTarget=0;points=[[0,0.5],[1,0.5]];portConstraint=eastwest;top=0;left=0;right=0;bottom=0;" vertex="1" parent="dqAtnIHSte1YufDKMeZw-130">
          <mxGeometry y="240" width="180" height="30" as="geometry" />
        </mxCell>
        <mxCell id="dqAtnIHSte1YufDKMeZw-153" value="FK" style="shape=partialRectangle;connectable=0;fillColor=none;top=0;left=0;bottom=0;right=0;editable=1;overflow=hidden;whiteSpace=wrap;html=1;" vertex="1" parent="dqAtnIHSte1YufDKMeZw-152">
          <mxGeometry width="30" height="30" as="geometry">
            <mxRectangle width="30" height="30" as="alternateBounds" />
          </mxGeometry>
        </mxCell>
        <mxCell id="dqAtnIHSte1YufDKMeZw-154" value="role_id" style="shape=partialRectangle;connectable=0;fillColor=none;top=0;left=0;bottom=0;right=0;align=left;spacingLeft=6;overflow=hidden;whiteSpace=wrap;html=1;" vertex="1" parent="dqAtnIHSte1YufDKMeZw-152">
          <mxGeometry x="30" width="150" height="30" as="geometry">
            <mxRectangle width="150" height="30" as="alternateBounds" />
          </mxGeometry>
        </mxCell>
        <mxCell id="dqAtnIHSte1YufDKMeZw-161" value="role" style="shape=table;startSize=30;container=1;collapsible=1;childLayout=tableLayout;fixedRows=1;rowLines=0;fontStyle=1;align=center;resizeLast=1;html=1;" vertex="1" parent="1">
          <mxGeometry x="-1440" y="-1710" width="180" height="120" as="geometry" />
        </mxCell>
        <mxCell id="dqAtnIHSte1YufDKMeZw-162" value="" style="shape=tableRow;horizontal=0;startSize=0;swimlaneHead=0;swimlaneBody=0;fillColor=none;collapsible=0;dropTarget=0;points=[[0,0.5],[1,0.5]];portConstraint=eastwest;top=0;left=0;right=0;bottom=1;" vertex="1" parent="dqAtnIHSte1YufDKMeZw-161">
          <mxGeometry y="30" width="180" height="30" as="geometry" />
        </mxCell>
        <mxCell id="dqAtnIHSte1YufDKMeZw-163" value="PK" style="shape=partialRectangle;connectable=0;fillColor=none;top=0;left=0;bottom=0;right=0;fontStyle=1;overflow=hidden;whiteSpace=wrap;html=1;" vertex="1" parent="dqAtnIHSte1YufDKMeZw-162">
          <mxGeometry width="30" height="30" as="geometry">
            <mxRectangle width="30" height="30" as="alternateBounds" />
          </mxGeometry>
        </mxCell>
        <mxCell id="dqAtnIHSte1YufDKMeZw-164" value="id" style="shape=partialRectangle;connectable=0;fillColor=none;top=0;left=0;bottom=0;right=0;align=left;spacingLeft=6;fontStyle=5;overflow=hidden;whiteSpace=wrap;html=1;" vertex="1" parent="dqAtnIHSte1YufDKMeZw-162">
          <mxGeometry x="30" width="150" height="30" as="geometry">
            <mxRectangle width="150" height="30" as="alternateBounds" />
          </mxGeometry>
        </mxCell>
        <mxCell id="dqAtnIHSte1YufDKMeZw-165" value="" style="shape=tableRow;horizontal=0;startSize=0;swimlaneHead=0;swimlaneBody=0;fillColor=none;collapsible=0;dropTarget=0;points=[[0,0.5],[1,0.5]];portConstraint=eastwest;top=0;left=0;right=0;bottom=0;" vertex="1" parent="dqAtnIHSte1YufDKMeZw-161">
          <mxGeometry y="60" width="180" height="30" as="geometry" />
        </mxCell>
        <mxCell id="dqAtnIHSte1YufDKMeZw-166" value="" style="shape=partialRectangle;connectable=0;fillColor=none;top=0;left=0;bottom=0;right=0;editable=1;overflow=hidden;whiteSpace=wrap;html=1;" vertex="1" parent="dqAtnIHSte1YufDKMeZw-165">
          <mxGeometry width="30" height="30" as="geometry">
            <mxRectangle width="30" height="30" as="alternateBounds" />
          </mxGeometry>
        </mxCell>
        <mxCell id="dqAtnIHSte1YufDKMeZw-167" value="name" style="shape=partialRectangle;connectable=0;fillColor=none;top=0;left=0;bottom=0;right=0;align=left;spacingLeft=6;overflow=hidden;whiteSpace=wrap;html=1;" vertex="1" parent="dqAtnIHSte1YufDKMeZw-165">
          <mxGeometry x="30" width="150" height="30" as="geometry">
            <mxRectangle width="150" height="30" as="alternateBounds" />
          </mxGeometry>
        </mxCell>
        <mxCell id="dqAtnIHSte1YufDKMeZw-168" style="shape=tableRow;horizontal=0;startSize=0;swimlaneHead=0;swimlaneBody=0;fillColor=none;collapsible=0;dropTarget=0;points=[[0,0.5],[1,0.5]];portConstraint=eastwest;top=0;left=0;right=0;bottom=0;" vertex="1" parent="dqAtnIHSte1YufDKMeZw-161">
          <mxGeometry y="90" width="180" height="30" as="geometry" />
        </mxCell>
        <mxCell id="dqAtnIHSte1YufDKMeZw-169" style="shape=partialRectangle;connectable=0;fillColor=none;top=0;left=0;bottom=0;right=0;editable=1;overflow=hidden;whiteSpace=wrap;html=1;" vertex="1" parent="dqAtnIHSte1YufDKMeZw-168">
          <mxGeometry width="30" height="30" as="geometry">
            <mxRectangle width="30" height="30" as="alternateBounds" />
          </mxGeometry>
        </mxCell>
        <mxCell id="dqAtnIHSte1YufDKMeZw-170" value="code" style="shape=partialRectangle;connectable=0;fillColor=none;top=0;left=0;bottom=0;right=0;align=left;spacingLeft=6;overflow=hidden;whiteSpace=wrap;html=1;" vertex="1" parent="dqAtnIHSte1YufDKMeZw-168">
          <mxGeometry x="30" width="150" height="30" as="geometry">
            <mxRectangle width="150" height="30" as="alternateBounds" />
          </mxGeometry>
        </mxCell>
        <mxCell id="dqAtnIHSte1YufDKMeZw-171" value="comment" style="shape=table;startSize=30;container=1;collapsible=1;childLayout=tableLayout;fixedRows=1;rowLines=0;fontStyle=1;align=center;resizeLast=1;html=1;" vertex="1" parent="1">
          <mxGeometry x="-980" y="-2070" width="180" height="150" as="geometry" />
        </mxCell>
        <mxCell id="dqAtnIHSte1YufDKMeZw-172" value="" style="shape=tableRow;horizontal=0;startSize=0;swimlaneHead=0;swimlaneBody=0;fillColor=none;collapsible=0;dropTarget=0;points=[[0,0.5],[1,0.5]];portConstraint=eastwest;top=0;left=0;right=0;bottom=1;" vertex="1" parent="dqAtnIHSte1YufDKMeZw-171">
          <mxGeometry y="30" width="180" height="30" as="geometry" />
        </mxCell>
        <mxCell id="dqAtnIHSte1YufDKMeZw-173" value="PK" style="shape=partialRectangle;connectable=0;fillColor=none;top=0;left=0;bottom=0;right=0;fontStyle=1;overflow=hidden;whiteSpace=wrap;html=1;" vertex="1" parent="dqAtnIHSte1YufDKMeZw-172">
          <mxGeometry width="30" height="30" as="geometry">
            <mxRectangle width="30" height="30" as="alternateBounds" />
          </mxGeometry>
        </mxCell>
        <mxCell id="dqAtnIHSte1YufDKMeZw-174" value="id" style="shape=partialRectangle;connectable=0;fillColor=none;top=0;left=0;bottom=0;right=0;align=left;spacingLeft=6;fontStyle=5;overflow=hidden;whiteSpace=wrap;html=1;" vertex="1" parent="dqAtnIHSte1YufDKMeZw-172">
          <mxGeometry x="30" width="150" height="30" as="geometry">
            <mxRectangle width="150" height="30" as="alternateBounds" />
          </mxGeometry>
        </mxCell>
        <mxCell id="dqAtnIHSte1YufDKMeZw-175" value="" style="shape=tableRow;horizontal=0;startSize=0;swimlaneHead=0;swimlaneBody=0;fillColor=none;collapsible=0;dropTarget=0;points=[[0,0.5],[1,0.5]];portConstraint=eastwest;top=0;left=0;right=0;bottom=0;" vertex="1" parent="dqAtnIHSte1YufDKMeZw-171">
          <mxGeometry y="60" width="180" height="30" as="geometry" />
        </mxCell>
        <mxCell id="dqAtnIHSte1YufDKMeZw-176" value="" style="shape=partialRectangle;connectable=0;fillColor=none;top=0;left=0;bottom=0;right=0;editable=1;overflow=hidden;whiteSpace=wrap;html=1;" vertex="1" parent="dqAtnIHSte1YufDKMeZw-175">
          <mxGeometry width="30" height="30" as="geometry">
            <mxRectangle width="30" height="30" as="alternateBounds" />
          </mxGeometry>
        </mxCell>
        <mxCell id="dqAtnIHSte1YufDKMeZw-177" value="message" style="shape=partialRectangle;connectable=0;fillColor=none;top=0;left=0;bottom=0;right=0;align=left;spacingLeft=6;overflow=hidden;whiteSpace=wrap;html=1;" vertex="1" parent="dqAtnIHSte1YufDKMeZw-175">
          <mxGeometry x="30" width="150" height="30" as="geometry">
            <mxRectangle width="150" height="30" as="alternateBounds" />
          </mxGeometry>
        </mxCell>
        <mxCell id="dqAtnIHSte1YufDKMeZw-181" value="" style="shape=tableRow;horizontal=0;startSize=0;swimlaneHead=0;swimlaneBody=0;fillColor=none;collapsible=0;dropTarget=0;points=[[0,0.5],[1,0.5]];portConstraint=eastwest;top=0;left=0;right=0;bottom=0;" vertex="1" parent="dqAtnIHSte1YufDKMeZw-171">
          <mxGeometry y="90" width="180" height="30" as="geometry" />
        </mxCell>
        <mxCell id="dqAtnIHSte1YufDKMeZw-182" value="FK" style="shape=partialRectangle;connectable=0;fillColor=none;top=0;left=0;bottom=0;right=0;editable=1;overflow=hidden;whiteSpace=wrap;html=1;" vertex="1" parent="dqAtnIHSte1YufDKMeZw-181">
          <mxGeometry width="30" height="30" as="geometry">
            <mxRectangle width="30" height="30" as="alternateBounds" />
          </mxGeometry>
        </mxCell>
        <mxCell id="dqAtnIHSte1YufDKMeZw-183" value="user_id" style="shape=partialRectangle;connectable=0;fillColor=none;top=0;left=0;bottom=0;right=0;align=left;spacingLeft=6;overflow=hidden;whiteSpace=wrap;html=1;" vertex="1" parent="dqAtnIHSte1YufDKMeZw-181">
          <mxGeometry x="30" width="150" height="30" as="geometry">
            <mxRectangle width="150" height="30" as="alternateBounds" />
          </mxGeometry>
        </mxCell>
        <mxCell id="dqAtnIHSte1YufDKMeZw-178" value="" style="shape=tableRow;horizontal=0;startSize=0;swimlaneHead=0;swimlaneBody=0;fillColor=none;collapsible=0;dropTarget=0;points=[[0,0.5],[1,0.5]];portConstraint=eastwest;top=0;left=0;right=0;bottom=0;" vertex="1" parent="dqAtnIHSte1YufDKMeZw-171">
          <mxGeometry y="120" width="180" height="30" as="geometry" />
        </mxCell>
        <mxCell id="dqAtnIHSte1YufDKMeZw-179" value="FK" style="shape=partialRectangle;connectable=0;fillColor=none;top=0;left=0;bottom=0;right=0;editable=1;overflow=hidden;whiteSpace=wrap;html=1;" vertex="1" parent="dqAtnIHSte1YufDKMeZw-178">
          <mxGeometry width="30" height="30" as="geometry">
            <mxRectangle width="30" height="30" as="alternateBounds" />
          </mxGeometry>
        </mxCell>
        <mxCell id="dqAtnIHSte1YufDKMeZw-180" value="order_id" style="shape=partialRectangle;connectable=0;fillColor=none;top=0;left=0;bottom=0;right=0;align=left;spacingLeft=6;overflow=hidden;whiteSpace=wrap;html=1;" vertex="1" parent="dqAtnIHSte1YufDKMeZw-178">
          <mxGeometry x="30" width="150" height="30" as="geometry">
            <mxRectangle width="150" height="30" as="alternateBounds" />
          </mxGeometry>
        </mxCell>
        <mxCell id="dqAtnIHSte1YufDKMeZw-184" value="order" style="shape=table;startSize=30;container=1;collapsible=1;childLayout=tableLayout;fixedRows=1;rowLines=0;fontStyle=1;align=center;resizeLast=1;html=1;" vertex="1" parent="1">
          <mxGeometry x="-980" y="-1880" width="180" height="300" as="geometry" />
        </mxCell>
        <mxCell id="dqAtnIHSte1YufDKMeZw-185" value="" style="shape=tableRow;horizontal=0;startSize=0;swimlaneHead=0;swimlaneBody=0;fillColor=none;collapsible=0;dropTarget=0;points=[[0,0.5],[1,0.5]];portConstraint=eastwest;top=0;left=0;right=0;bottom=1;" vertex="1" parent="dqAtnIHSte1YufDKMeZw-184">
          <mxGeometry y="30" width="180" height="30" as="geometry" />
        </mxCell>
        <mxCell id="dqAtnIHSte1YufDKMeZw-186" value="PK" style="shape=partialRectangle;connectable=0;fillColor=none;top=0;left=0;bottom=0;right=0;fontStyle=1;overflow=hidden;whiteSpace=wrap;html=1;" vertex="1" parent="dqAtnIHSte1YufDKMeZw-185">
          <mxGeometry width="30" height="30" as="geometry">
            <mxRectangle width="30" height="30" as="alternateBounds" />
          </mxGeometry>
        </mxCell>
        <mxCell id="dqAtnIHSte1YufDKMeZw-187" value="id" style="shape=partialRectangle;connectable=0;fillColor=none;top=0;left=0;bottom=0;right=0;align=left;spacingLeft=6;fontStyle=5;overflow=hidden;whiteSpace=wrap;html=1;" vertex="1" parent="dqAtnIHSte1YufDKMeZw-185">
          <mxGeometry x="30" width="150" height="30" as="geometry">
            <mxRectangle width="150" height="30" as="alternateBounds" />
          </mxGeometry>
        </mxCell>
        <mxCell id="dqAtnIHSte1YufDKMeZw-188" value="" style="shape=tableRow;horizontal=0;startSize=0;swimlaneHead=0;swimlaneBody=0;fillColor=none;collapsible=0;dropTarget=0;points=[[0,0.5],[1,0.5]];portConstraint=eastwest;top=0;left=0;right=0;bottom=0;" vertex="1" parent="dqAtnIHSte1YufDKMeZw-184">
          <mxGeometry y="60" width="180" height="30" as="geometry" />
        </mxCell>
        <mxCell id="dqAtnIHSte1YufDKMeZw-189" value="" style="shape=partialRectangle;connectable=0;fillColor=none;top=0;left=0;bottom=0;right=0;editable=1;overflow=hidden;whiteSpace=wrap;html=1;" vertex="1" parent="dqAtnIHSte1YufDKMeZw-188">
          <mxGeometry width="30" height="30" as="geometry">
            <mxRectangle width="30" height="30" as="alternateBounds" />
          </mxGeometry>
        </mxCell>
        <mxCell id="dqAtnIHSte1YufDKMeZw-190" value="start_date" style="shape=partialRectangle;connectable=0;fillColor=none;top=0;left=0;bottom=0;right=0;align=left;spacingLeft=6;overflow=hidden;whiteSpace=wrap;html=1;" vertex="1" parent="dqAtnIHSte1YufDKMeZw-188">
          <mxGeometry x="30" width="150" height="30" as="geometry">
            <mxRectangle width="150" height="30" as="alternateBounds" />
          </mxGeometry>
        </mxCell>
        <mxCell id="dqAtnIHSte1YufDKMeZw-203" style="shape=tableRow;horizontal=0;startSize=0;swimlaneHead=0;swimlaneBody=0;fillColor=none;collapsible=0;dropTarget=0;points=[[0,0.5],[1,0.5]];portConstraint=eastwest;top=0;left=0;right=0;bottom=0;" vertex="1" parent="dqAtnIHSte1YufDKMeZw-184">
          <mxGeometry y="90" width="180" height="30" as="geometry" />
        </mxCell>
        <mxCell id="dqAtnIHSte1YufDKMeZw-204" style="shape=partialRectangle;connectable=0;fillColor=none;top=0;left=0;bottom=0;right=0;editable=1;overflow=hidden;whiteSpace=wrap;html=1;" vertex="1" parent="dqAtnIHSte1YufDKMeZw-203">
          <mxGeometry width="30" height="30" as="geometry">
            <mxRectangle width="30" height="30" as="alternateBounds" />
          </mxGeometry>
        </mxCell>
        <mxCell id="dqAtnIHSte1YufDKMeZw-205" value="end_date" style="shape=partialRectangle;connectable=0;fillColor=none;top=0;left=0;bottom=0;right=0;align=left;spacingLeft=6;overflow=hidden;whiteSpace=wrap;html=1;" vertex="1" parent="dqAtnIHSte1YufDKMeZw-203">
          <mxGeometry x="30" width="150" height="30" as="geometry">
            <mxRectangle width="150" height="30" as="alternateBounds" />
          </mxGeometry>
        </mxCell>
        <mxCell id="dqAtnIHSte1YufDKMeZw-292" style="shape=tableRow;horizontal=0;startSize=0;swimlaneHead=0;swimlaneBody=0;fillColor=none;collapsible=0;dropTarget=0;points=[[0,0.5],[1,0.5]];portConstraint=eastwest;top=0;left=0;right=0;bottom=0;" vertex="1" parent="dqAtnIHSte1YufDKMeZw-184">
          <mxGeometry y="120" width="180" height="30" as="geometry" />
        </mxCell>
        <mxCell id="dqAtnIHSte1YufDKMeZw-293" style="shape=partialRectangle;connectable=0;fillColor=none;top=0;left=0;bottom=0;right=0;editable=1;overflow=hidden;whiteSpace=wrap;html=1;" vertex="1" parent="dqAtnIHSte1YufDKMeZw-292">
          <mxGeometry width="30" height="30" as="geometry">
            <mxRectangle width="30" height="30" as="alternateBounds" />
          </mxGeometry>
        </mxCell>
        <mxCell id="dqAtnIHSte1YufDKMeZw-294" value="device_type" style="shape=partialRectangle;connectable=0;fillColor=none;top=0;left=0;bottom=0;right=0;align=left;spacingLeft=6;overflow=hidden;whiteSpace=wrap;html=1;" vertex="1" parent="dqAtnIHSte1YufDKMeZw-292">
          <mxGeometry x="30" width="150" height="30" as="geometry">
            <mxRectangle width="150" height="30" as="alternateBounds" />
          </mxGeometry>
        </mxCell>
        <mxCell id="dqAtnIHSte1YufDKMeZw-194" value="" style="shape=tableRow;horizontal=0;startSize=0;swimlaneHead=0;swimlaneBody=0;fillColor=none;collapsible=0;dropTarget=0;points=[[0,0.5],[1,0.5]];portConstraint=eastwest;top=0;left=0;right=0;bottom=0;" vertex="1" parent="dqAtnIHSte1YufDKMeZw-184">
          <mxGeometry y="150" width="180" height="30" as="geometry" />
        </mxCell>
        <mxCell id="dqAtnIHSte1YufDKMeZw-195" value="" style="shape=partialRectangle;connectable=0;fillColor=none;top=0;left=0;bottom=0;right=0;editable=1;overflow=hidden;whiteSpace=wrap;html=1;" vertex="1" parent="dqAtnIHSte1YufDKMeZw-194">
          <mxGeometry width="30" height="30" as="geometry">
            <mxRectangle width="30" height="30" as="alternateBounds" />
          </mxGeometry>
        </mxCell>
        <mxCell id="dqAtnIHSte1YufDKMeZw-196" value="tech_model" style="shape=partialRectangle;connectable=0;fillColor=none;top=0;left=0;bottom=0;right=0;align=left;spacingLeft=6;overflow=hidden;whiteSpace=wrap;html=1;" vertex="1" parent="dqAtnIHSte1YufDKMeZw-194">
          <mxGeometry x="30" width="150" height="30" as="geometry">
            <mxRectangle width="150" height="30" as="alternateBounds" />
          </mxGeometry>
        </mxCell>
        <mxCell id="dqAtnIHSte1YufDKMeZw-197" style="shape=tableRow;horizontal=0;startSize=0;swimlaneHead=0;swimlaneBody=0;fillColor=none;collapsible=0;dropTarget=0;points=[[0,0.5],[1,0.5]];portConstraint=eastwest;top=0;left=0;right=0;bottom=0;" vertex="1" parent="dqAtnIHSte1YufDKMeZw-184">
          <mxGeometry y="180" width="180" height="30" as="geometry" />
        </mxCell>
        <mxCell id="dqAtnIHSte1YufDKMeZw-198" style="shape=partialRectangle;connectable=0;fillColor=none;top=0;left=0;bottom=0;right=0;editable=1;overflow=hidden;whiteSpace=wrap;html=1;" vertex="1" parent="dqAtnIHSte1YufDKMeZw-197">
          <mxGeometry width="30" height="30" as="geometry">
            <mxRectangle width="30" height="30" as="alternateBounds" />
          </mxGeometry>
        </mxCell>
        <mxCell id="dqAtnIHSte1YufDKMeZw-199" value="problem_description" style="shape=partialRectangle;connectable=0;fillColor=none;top=0;left=0;bottom=0;right=0;align=left;spacingLeft=6;overflow=hidden;whiteSpace=wrap;html=1;" vertex="1" parent="dqAtnIHSte1YufDKMeZw-197">
          <mxGeometry x="30" width="150" height="30" as="geometry">
            <mxRectangle width="150" height="30" as="alternateBounds" />
          </mxGeometry>
        </mxCell>
        <mxCell id="dqAtnIHSte1YufDKMeZw-200" style="shape=tableRow;horizontal=0;startSize=0;swimlaneHead=0;swimlaneBody=0;fillColor=none;collapsible=0;dropTarget=0;points=[[0,0.5],[1,0.5]];portConstraint=eastwest;top=0;left=0;right=0;bottom=0;" vertex="1" parent="dqAtnIHSte1YufDKMeZw-184">
          <mxGeometry y="210" width="180" height="30" as="geometry" />
        </mxCell>
        <mxCell id="dqAtnIHSte1YufDKMeZw-201" value="FK" style="shape=partialRectangle;connectable=0;fillColor=none;top=0;left=0;bottom=0;right=0;editable=1;overflow=hidden;whiteSpace=wrap;html=1;" vertex="1" parent="dqAtnIHSte1YufDKMeZw-200">
          <mxGeometry width="30" height="30" as="geometry">
            <mxRectangle width="30" height="30" as="alternateBounds" />
          </mxGeometry>
        </mxCell>
        <mxCell id="dqAtnIHSte1YufDKMeZw-202" value="status_id" style="shape=partialRectangle;connectable=0;fillColor=none;top=0;left=0;bottom=0;right=0;align=left;spacingLeft=6;overflow=hidden;whiteSpace=wrap;html=1;" vertex="1" parent="dqAtnIHSte1YufDKMeZw-200">
          <mxGeometry x="30" width="150" height="30" as="geometry">
            <mxRectangle width="150" height="30" as="alternateBounds" />
          </mxGeometry>
        </mxCell>
        <mxCell id="dqAtnIHSte1YufDKMeZw-206" style="shape=tableRow;horizontal=0;startSize=0;swimlaneHead=0;swimlaneBody=0;fillColor=none;collapsible=0;dropTarget=0;points=[[0,0.5],[1,0.5]];portConstraint=eastwest;top=0;left=0;right=0;bottom=0;" vertex="1" parent="dqAtnIHSte1YufDKMeZw-184">
          <mxGeometry y="240" width="180" height="30" as="geometry" />
        </mxCell>
        <mxCell id="dqAtnIHSte1YufDKMeZw-207" value="FK" style="shape=partialRectangle;connectable=0;fillColor=none;top=0;left=0;bottom=0;right=0;editable=1;overflow=hidden;whiteSpace=wrap;html=1;" vertex="1" parent="dqAtnIHSte1YufDKMeZw-206">
          <mxGeometry width="30" height="30" as="geometry">
            <mxRectangle width="30" height="30" as="alternateBounds" />
          </mxGeometry>
        </mxCell>
        <mxCell id="dqAtnIHSte1YufDKMeZw-208" value="user_id" style="shape=partialRectangle;connectable=0;fillColor=none;top=0;left=0;bottom=0;right=0;align=left;spacingLeft=6;overflow=hidden;whiteSpace=wrap;html=1;" vertex="1" parent="dqAtnIHSte1YufDKMeZw-206">
          <mxGeometry x="30" width="150" height="30" as="geometry">
            <mxRectangle width="150" height="30" as="alternateBounds" />
          </mxGeometry>
        </mxCell>
        <mxCell id="dqAtnIHSte1YufDKMeZw-209" style="shape=tableRow;horizontal=0;startSize=0;swimlaneHead=0;swimlaneBody=0;fillColor=none;collapsible=0;dropTarget=0;points=[[0,0.5],[1,0.5]];portConstraint=eastwest;top=0;left=0;right=0;bottom=0;" vertex="1" parent="dqAtnIHSte1YufDKMeZw-184">
          <mxGeometry y="270" width="180" height="30" as="geometry" />
        </mxCell>
        <mxCell id="dqAtnIHSte1YufDKMeZw-210" value="FK" style="shape=partialRectangle;connectable=0;fillColor=none;top=0;left=0;bottom=0;right=0;editable=1;overflow=hidden;whiteSpace=wrap;html=1;" vertex="1" parent="dqAtnIHSte1YufDKMeZw-209">
          <mxGeometry width="30" height="30" as="geometry">
            <mxRectangle width="30" height="30" as="alternateBounds" />
          </mxGeometry>
        </mxCell>
        <mxCell id="dqAtnIHSte1YufDKMeZw-211" value="priority_id" style="shape=partialRectangle;connectable=0;fillColor=none;top=0;left=0;bottom=0;right=0;align=left;spacingLeft=6;overflow=hidden;whiteSpace=wrap;html=1;" vertex="1" parent="dqAtnIHSte1YufDKMeZw-209">
          <mxGeometry x="30" width="150" height="30" as="geometry">
            <mxRectangle width="150" height="30" as="alternateBounds" />
          </mxGeometry>
        </mxCell>
        <mxCell id="dqAtnIHSte1YufDKMeZw-212" value="priority" style="shape=table;startSize=30;container=1;collapsible=1;childLayout=tableLayout;fixedRows=1;rowLines=0;fontStyle=1;align=center;resizeLast=1;html=1;" vertex="1" parent="1">
          <mxGeometry x="-740" y="-1640" width="180" height="90" as="geometry" />
        </mxCell>
        <mxCell id="dqAtnIHSte1YufDKMeZw-213" value="" style="shape=tableRow;horizontal=0;startSize=0;swimlaneHead=0;swimlaneBody=0;fillColor=none;collapsible=0;dropTarget=0;points=[[0,0.5],[1,0.5]];portConstraint=eastwest;top=0;left=0;right=0;bottom=1;" vertex="1" parent="dqAtnIHSte1YufDKMeZw-212">
          <mxGeometry y="30" width="180" height="30" as="geometry" />
        </mxCell>
        <mxCell id="dqAtnIHSte1YufDKMeZw-214" value="PK" style="shape=partialRectangle;connectable=0;fillColor=none;top=0;left=0;bottom=0;right=0;fontStyle=1;overflow=hidden;whiteSpace=wrap;html=1;" vertex="1" parent="dqAtnIHSte1YufDKMeZw-213">
          <mxGeometry width="30" height="30" as="geometry">
            <mxRectangle width="30" height="30" as="alternateBounds" />
          </mxGeometry>
        </mxCell>
        <mxCell id="dqAtnIHSte1YufDKMeZw-215" value="id" style="shape=partialRectangle;connectable=0;fillColor=none;top=0;left=0;bottom=0;right=0;align=left;spacingLeft=6;fontStyle=5;overflow=hidden;whiteSpace=wrap;html=1;" vertex="1" parent="dqAtnIHSte1YufDKMeZw-213">
          <mxGeometry x="30" width="150" height="30" as="geometry">
            <mxRectangle width="150" height="30" as="alternateBounds" />
          </mxGeometry>
        </mxCell>
        <mxCell id="dqAtnIHSte1YufDKMeZw-216" value="" style="shape=tableRow;horizontal=0;startSize=0;swimlaneHead=0;swimlaneBody=0;fillColor=none;collapsible=0;dropTarget=0;points=[[0,0.5],[1,0.5]];portConstraint=eastwest;top=0;left=0;right=0;bottom=0;" vertex="1" parent="dqAtnIHSte1YufDKMeZw-212">
          <mxGeometry y="60" width="180" height="30" as="geometry" />
        </mxCell>
        <mxCell id="dqAtnIHSte1YufDKMeZw-217" value="" style="shape=partialRectangle;connectable=0;fillColor=none;top=0;left=0;bottom=0;right=0;editable=1;overflow=hidden;whiteSpace=wrap;html=1;" vertex="1" parent="dqAtnIHSte1YufDKMeZw-216">
          <mxGeometry width="30" height="30" as="geometry">
            <mxRectangle width="30" height="30" as="alternateBounds" />
          </mxGeometry>
        </mxCell>
        <mxCell id="dqAtnIHSte1YufDKMeZw-218" value="name" style="shape=partialRectangle;connectable=0;fillColor=none;top=0;left=0;bottom=0;right=0;align=left;spacingLeft=6;overflow=hidden;whiteSpace=wrap;html=1;" vertex="1" parent="dqAtnIHSte1YufDKMeZw-216">
          <mxGeometry x="30" width="150" height="30" as="geometry">
            <mxRectangle width="150" height="30" as="alternateBounds" />
          </mxGeometry>
        </mxCell>
        <mxCell id="dqAtnIHSte1YufDKMeZw-219" value="status" style="shape=table;startSize=30;container=1;collapsible=1;childLayout=tableLayout;fixedRows=1;rowLines=0;fontStyle=1;align=center;resizeLast=1;html=1;" vertex="1" parent="1">
          <mxGeometry x="-740" y="-1760" width="180" height="90" as="geometry" />
        </mxCell>
        <mxCell id="dqAtnIHSte1YufDKMeZw-220" value="" style="shape=tableRow;horizontal=0;startSize=0;swimlaneHead=0;swimlaneBody=0;fillColor=none;collapsible=0;dropTarget=0;points=[[0,0.5],[1,0.5]];portConstraint=eastwest;top=0;left=0;right=0;bottom=1;" vertex="1" parent="dqAtnIHSte1YufDKMeZw-219">
          <mxGeometry y="30" width="180" height="30" as="geometry" />
        </mxCell>
        <mxCell id="dqAtnIHSte1YufDKMeZw-221" value="PK" style="shape=partialRectangle;connectable=0;fillColor=none;top=0;left=0;bottom=0;right=0;fontStyle=1;overflow=hidden;whiteSpace=wrap;html=1;" vertex="1" parent="dqAtnIHSte1YufDKMeZw-220">
          <mxGeometry width="30" height="30" as="geometry">
            <mxRectangle width="30" height="30" as="alternateBounds" />
          </mxGeometry>
        </mxCell>
        <mxCell id="dqAtnIHSte1YufDKMeZw-222" value="id" style="shape=partialRectangle;connectable=0;fillColor=none;top=0;left=0;bottom=0;right=0;align=left;spacingLeft=6;fontStyle=5;overflow=hidden;whiteSpace=wrap;html=1;" vertex="1" parent="dqAtnIHSte1YufDKMeZw-220">
          <mxGeometry x="30" width="150" height="30" as="geometry">
            <mxRectangle width="150" height="30" as="alternateBounds" />
          </mxGeometry>
        </mxCell>
        <mxCell id="dqAtnIHSte1YufDKMeZw-223" value="" style="shape=tableRow;horizontal=0;startSize=0;swimlaneHead=0;swimlaneBody=0;fillColor=none;collapsible=0;dropTarget=0;points=[[0,0.5],[1,0.5]];portConstraint=eastwest;top=0;left=0;right=0;bottom=0;" vertex="1" parent="dqAtnIHSte1YufDKMeZw-219">
          <mxGeometry y="60" width="180" height="30" as="geometry" />
        </mxCell>
        <mxCell id="dqAtnIHSte1YufDKMeZw-224" value="" style="shape=partialRectangle;connectable=0;fillColor=none;top=0;left=0;bottom=0;right=0;editable=1;overflow=hidden;whiteSpace=wrap;html=1;" vertex="1" parent="dqAtnIHSte1YufDKMeZw-223">
          <mxGeometry width="30" height="30" as="geometry">
            <mxRectangle width="30" height="30" as="alternateBounds" />
          </mxGeometry>
        </mxCell>
        <mxCell id="dqAtnIHSte1YufDKMeZw-225" value="name" style="shape=partialRectangle;connectable=0;fillColor=none;top=0;left=0;bottom=0;right=0;align=left;spacingLeft=6;overflow=hidden;whiteSpace=wrap;html=1;" vertex="1" parent="dqAtnIHSte1YufDKMeZw-223">
          <mxGeometry x="30" width="150" height="30" as="geometry">
            <mxRectangle width="150" height="30" as="alternateBounds" />
          </mxGeometry>
        </mxCell>
        <mxCell id="dqAtnIHSte1YufDKMeZw-268" value="report_order" style="shape=table;startSize=30;container=1;collapsible=1;childLayout=tableLayout;fixedRows=1;rowLines=0;fontStyle=1;align=center;resizeLast=1;html=1;" vertex="1" parent="1">
          <mxGeometry x="-740" y="-1970" width="180" height="180" as="geometry" />
        </mxCell>
        <mxCell id="dqAtnIHSte1YufDKMeZw-269" value="" style="shape=tableRow;horizontal=0;startSize=0;swimlaneHead=0;swimlaneBody=0;fillColor=none;collapsible=0;dropTarget=0;points=[[0,0.5],[1,0.5]];portConstraint=eastwest;top=0;left=0;right=0;bottom=1;" vertex="1" parent="dqAtnIHSte1YufDKMeZw-268">
          <mxGeometry y="30" width="180" height="30" as="geometry" />
        </mxCell>
        <mxCell id="dqAtnIHSte1YufDKMeZw-270" value="PK" style="shape=partialRectangle;connectable=0;fillColor=none;top=0;left=0;bottom=0;right=0;fontStyle=1;overflow=hidden;whiteSpace=wrap;html=1;" vertex="1" parent="dqAtnIHSte1YufDKMeZw-269">
          <mxGeometry width="30" height="30" as="geometry">
            <mxRectangle width="30" height="30" as="alternateBounds" />
          </mxGeometry>
        </mxCell>
        <mxCell id="dqAtnIHSte1YufDKMeZw-271" value="id" style="shape=partialRectangle;connectable=0;fillColor=none;top=0;left=0;bottom=0;right=0;align=left;spacingLeft=6;fontStyle=5;overflow=hidden;whiteSpace=wrap;html=1;" vertex="1" parent="dqAtnIHSte1YufDKMeZw-269">
          <mxGeometry x="30" width="150" height="30" as="geometry">
            <mxRectangle width="150" height="30" as="alternateBounds" />
          </mxGeometry>
        </mxCell>
        <mxCell id="dqAtnIHSte1YufDKMeZw-345" style="shape=tableRow;horizontal=0;startSize=0;swimlaneHead=0;swimlaneBody=0;fillColor=none;collapsible=0;dropTarget=0;points=[[0,0.5],[1,0.5]];portConstraint=eastwest;top=0;left=0;right=0;bottom=0;" vertex="1" parent="dqAtnIHSte1YufDKMeZw-268">
          <mxGeometry y="60" width="180" height="30" as="geometry" />
        </mxCell>
        <mxCell id="dqAtnIHSte1YufDKMeZw-346" style="shape=partialRectangle;connectable=0;fillColor=none;top=0;left=0;bottom=0;right=0;editable=1;overflow=hidden;whiteSpace=wrap;html=1;" vertex="1" parent="dqAtnIHSte1YufDKMeZw-345">
          <mxGeometry width="30" height="30" as="geometry">
            <mxRectangle width="30" height="30" as="alternateBounds" />
          </mxGeometry>
        </mxCell>
        <mxCell id="dqAtnIHSte1YufDKMeZw-347" value="price" style="shape=partialRectangle;connectable=0;fillColor=none;top=0;left=0;bottom=0;right=0;align=left;spacingLeft=6;overflow=hidden;whiteSpace=wrap;html=1;" vertex="1" parent="dqAtnIHSte1YufDKMeZw-345">
          <mxGeometry x="30" width="150" height="30" as="geometry">
            <mxRectangle width="150" height="30" as="alternateBounds" />
          </mxGeometry>
        </mxCell>
        <mxCell id="dqAtnIHSte1YufDKMeZw-317" style="shape=tableRow;horizontal=0;startSize=0;swimlaneHead=0;swimlaneBody=0;fillColor=none;collapsible=0;dropTarget=0;points=[[0,0.5],[1,0.5]];portConstraint=eastwest;top=0;left=0;right=0;bottom=0;" vertex="1" parent="dqAtnIHSte1YufDKMeZw-268">
          <mxGeometry y="90" width="180" height="30" as="geometry" />
        </mxCell>
        <mxCell id="dqAtnIHSte1YufDKMeZw-318" value="FK" style="shape=partialRectangle;connectable=0;fillColor=none;top=0;left=0;bottom=0;right=0;editable=1;overflow=hidden;whiteSpace=wrap;html=1;" vertex="1" parent="dqAtnIHSte1YufDKMeZw-317">
          <mxGeometry width="30" height="30" as="geometry">
            <mxRectangle width="30" height="30" as="alternateBounds" />
          </mxGeometry>
        </mxCell>
        <mxCell id="dqAtnIHSte1YufDKMeZw-319" value="material_id" style="shape=partialRectangle;connectable=0;fillColor=none;top=0;left=0;bottom=0;right=0;align=left;spacingLeft=6;overflow=hidden;whiteSpace=wrap;html=1;" vertex="1" parent="dqAtnIHSte1YufDKMeZw-317">
          <mxGeometry x="30" width="150" height="30" as="geometry">
            <mxRectangle width="150" height="30" as="alternateBounds" />
          </mxGeometry>
        </mxCell>
        <mxCell id="dqAtnIHSte1YufDKMeZw-278" value="" style="shape=tableRow;horizontal=0;startSize=0;swimlaneHead=0;swimlaneBody=0;fillColor=none;collapsible=0;dropTarget=0;points=[[0,0.5],[1,0.5]];portConstraint=eastwest;top=0;left=0;right=0;bottom=0;" vertex="1" parent="dqAtnIHSte1YufDKMeZw-268">
          <mxGeometry y="120" width="180" height="30" as="geometry" />
        </mxCell>
        <mxCell id="dqAtnIHSte1YufDKMeZw-279" value="FK" style="shape=partialRectangle;connectable=0;fillColor=none;top=0;left=0;bottom=0;right=0;editable=1;overflow=hidden;whiteSpace=wrap;html=1;" vertex="1" parent="dqAtnIHSte1YufDKMeZw-278">
          <mxGeometry width="30" height="30" as="geometry">
            <mxRectangle width="30" height="30" as="alternateBounds" />
          </mxGeometry>
        </mxCell>
        <mxCell id="dqAtnIHSte1YufDKMeZw-280" value="order_id" style="shape=partialRectangle;connectable=0;fillColor=none;top=0;left=0;bottom=0;right=0;align=left;spacingLeft=6;overflow=hidden;whiteSpace=wrap;html=1;" vertex="1" parent="dqAtnIHSte1YufDKMeZw-278">
          <mxGeometry x="30" width="150" height="30" as="geometry">
            <mxRectangle width="150" height="30" as="alternateBounds" />
          </mxGeometry>
        </mxCell>
        <mxCell id="dqAtnIHSte1YufDKMeZw-348" style="shape=tableRow;horizontal=0;startSize=0;swimlaneHead=0;swimlaneBody=0;fillColor=none;collapsible=0;dropTarget=0;points=[[0,0.5],[1,0.5]];portConstraint=eastwest;top=0;left=0;right=0;bottom=0;" vertex="1" parent="dqAtnIHSte1YufDKMeZw-268">
          <mxGeometry y="150" width="180" height="30" as="geometry" />
        </mxCell>
        <mxCell id="dqAtnIHSte1YufDKMeZw-349" value="FK" style="shape=partialRectangle;connectable=0;fillColor=none;top=0;left=0;bottom=0;right=0;editable=1;overflow=hidden;whiteSpace=wrap;html=1;" vertex="1" parent="dqAtnIHSte1YufDKMeZw-348">
          <mxGeometry width="30" height="30" as="geometry">
            <mxRectangle width="30" height="30" as="alternateBounds" />
          </mxGeometry>
        </mxCell>
        <mxCell id="dqAtnIHSte1YufDKMeZw-350" value="report_status_id" style="shape=partialRectangle;connectable=0;fillColor=none;top=0;left=0;bottom=0;right=0;align=left;spacingLeft=6;overflow=hidden;whiteSpace=wrap;html=1;" vertex="1" parent="dqAtnIHSte1YufDKMeZw-348">
          <mxGeometry x="30" width="150" height="30" as="geometry">
            <mxRectangle width="150" height="30" as="alternateBounds" />
          </mxGeometry>
        </mxCell>
        <mxCell id="dqAtnIHSte1YufDKMeZw-284" value="" style="edgeStyle=entityRelationEdgeStyle;fontSize=12;html=1;endArrow=ERoneToMany;rounded=0;" edge="1" parent="1" source="dqAtnIHSte1YufDKMeZw-162" target="dqAtnIHSte1YufDKMeZw-152">
          <mxGeometry width="100" height="100" relative="1" as="geometry">
            <mxPoint x="-1390" y="-1460" as="sourcePoint" />
            <mxPoint x="-1290" y="-1560" as="targetPoint" />
          </mxGeometry>
        </mxCell>
        <mxCell id="dqAtnIHSte1YufDKMeZw-286" value="" style="edgeStyle=entityRelationEdgeStyle;fontSize=12;html=1;endArrow=ERoneToMany;rounded=0;" edge="1" parent="1" source="dqAtnIHSte1YufDKMeZw-131" target="dqAtnIHSte1YufDKMeZw-181">
          <mxGeometry width="100" height="100" relative="1" as="geometry">
            <mxPoint x="-1270" y="-2090" as="sourcePoint" />
            <mxPoint x="-1190" y="-2090" as="targetPoint" />
          </mxGeometry>
        </mxCell>
        <mxCell id="dqAtnIHSte1YufDKMeZw-287" value="" style="edgeStyle=entityRelationEdgeStyle;fontSize=12;html=1;endArrow=ERoneToMany;rounded=0;" edge="1" parent="1" source="dqAtnIHSte1YufDKMeZw-131" target="dqAtnIHSte1YufDKMeZw-206">
          <mxGeometry width="100" height="100" relative="1" as="geometry">
            <mxPoint x="-1367" y="-2050" as="sourcePoint" />
            <mxPoint x="-1287" y="-2050" as="targetPoint" />
            <Array as="points">
              <mxPoint x="-1337" y="-2425" />
            </Array>
          </mxGeometry>
        </mxCell>
        <mxCell id="dqAtnIHSte1YufDKMeZw-288" value="" style="edgeStyle=entityRelationEdgeStyle;fontSize=12;html=1;endArrow=ERoneToMany;rounded=0;" edge="1" parent="1" source="dqAtnIHSte1YufDKMeZw-220" target="dqAtnIHSte1YufDKMeZw-200">
          <mxGeometry width="100" height="100" relative="1" as="geometry">
            <mxPoint x="-1170" y="-2015.34" as="sourcePoint" />
            <mxPoint x="-1090" y="-2015.34" as="targetPoint" />
            <Array as="points">
              <mxPoint x="-760" y="-1655" />
            </Array>
          </mxGeometry>
        </mxCell>
        <mxCell id="dqAtnIHSte1YufDKMeZw-289" value="" style="edgeStyle=entityRelationEdgeStyle;fontSize=12;html=1;endArrow=ERoneToMany;rounded=0;" edge="1" parent="1" source="dqAtnIHSte1YufDKMeZw-185" target="dqAtnIHSte1YufDKMeZw-178">
          <mxGeometry width="100" height="100" relative="1" as="geometry">
            <mxPoint x="-780" y="-1870" as="sourcePoint" />
            <mxPoint x="-700" y="-1870" as="targetPoint" />
          </mxGeometry>
        </mxCell>
        <mxCell id="dqAtnIHSte1YufDKMeZw-290" value="" style="edgeStyle=entityRelationEdgeStyle;fontSize=12;html=1;endArrow=ERoneToMany;rounded=0;" edge="1" parent="1" source="dqAtnIHSte1YufDKMeZw-213" target="dqAtnIHSte1YufDKMeZw-209">
          <mxGeometry width="100" height="100" relative="1" as="geometry">
            <mxPoint x="-690" y="-1735" as="sourcePoint" />
            <mxPoint x="-790" y="-1645" as="targetPoint" />
          </mxGeometry>
        </mxCell>
        <mxCell id="dqAtnIHSte1YufDKMeZw-291" value="" style="edgeStyle=orthogonalEdgeStyle;fontSize=12;html=1;endArrow=ERoneToMany;rounded=0;" edge="1" parent="1" source="dqAtnIHSte1YufDKMeZw-185" target="dqAtnIHSte1YufDKMeZw-278">
          <mxGeometry width="100" height="100" relative="1" as="geometry">
            <mxPoint x="-790" y="-1825" as="sourcePoint" />
            <mxPoint x="-790" y="-1935" as="targetPoint" />
          </mxGeometry>
        </mxCell>
        <mxCell id="dqAtnIHSte1YufDKMeZw-320" value="material" style="shape=table;startSize=30;container=1;collapsible=1;childLayout=tableLayout;fixedRows=1;rowLines=0;fontStyle=1;align=center;resizeLast=1;html=1;" vertex="1" parent="1">
          <mxGeometry x="-480" y="-2030" width="180" height="150" as="geometry" />
        </mxCell>
        <mxCell id="dqAtnIHSte1YufDKMeZw-321" value="" style="shape=tableRow;horizontal=0;startSize=0;swimlaneHead=0;swimlaneBody=0;fillColor=none;collapsible=0;dropTarget=0;points=[[0,0.5],[1,0.5]];portConstraint=eastwest;top=0;left=0;right=0;bottom=1;" vertex="1" parent="dqAtnIHSte1YufDKMeZw-320">
          <mxGeometry y="30" width="180" height="30" as="geometry" />
        </mxCell>
        <mxCell id="dqAtnIHSte1YufDKMeZw-322" value="PK" style="shape=partialRectangle;connectable=0;fillColor=none;top=0;left=0;bottom=0;right=0;fontStyle=1;overflow=hidden;whiteSpace=wrap;html=1;" vertex="1" parent="dqAtnIHSte1YufDKMeZw-321">
          <mxGeometry width="30" height="30" as="geometry">
            <mxRectangle width="30" height="30" as="alternateBounds" />
          </mxGeometry>
        </mxCell>
        <mxCell id="dqAtnIHSte1YufDKMeZw-323" value="id" style="shape=partialRectangle;connectable=0;fillColor=none;top=0;left=0;bottom=0;right=0;align=left;spacingLeft=6;fontStyle=5;overflow=hidden;whiteSpace=wrap;html=1;" vertex="1" parent="dqAtnIHSte1YufDKMeZw-321">
          <mxGeometry x="30" width="150" height="30" as="geometry">
            <mxRectangle width="150" height="30" as="alternateBounds" />
          </mxGeometry>
        </mxCell>
        <mxCell id="dqAtnIHSte1YufDKMeZw-324" value="" style="shape=tableRow;horizontal=0;startSize=0;swimlaneHead=0;swimlaneBody=0;fillColor=none;collapsible=0;dropTarget=0;points=[[0,0.5],[1,0.5]];portConstraint=eastwest;top=0;left=0;right=0;bottom=0;" vertex="1" parent="dqAtnIHSte1YufDKMeZw-320">
          <mxGeometry y="60" width="180" height="30" as="geometry" />
        </mxCell>
        <mxCell id="dqAtnIHSte1YufDKMeZw-325" value="" style="shape=partialRectangle;connectable=0;fillColor=none;top=0;left=0;bottom=0;right=0;editable=1;overflow=hidden;whiteSpace=wrap;html=1;" vertex="1" parent="dqAtnIHSte1YufDKMeZw-324">
          <mxGeometry width="30" height="30" as="geometry">
            <mxRectangle width="30" height="30" as="alternateBounds" />
          </mxGeometry>
        </mxCell>
        <mxCell id="dqAtnIHSte1YufDKMeZw-326" value="name" style="shape=partialRectangle;connectable=0;fillColor=none;top=0;left=0;bottom=0;right=0;align=left;spacingLeft=6;overflow=hidden;whiteSpace=wrap;html=1;" vertex="1" parent="dqAtnIHSte1YufDKMeZw-324">
          <mxGeometry x="30" width="150" height="30" as="geometry">
            <mxRectangle width="150" height="30" as="alternateBounds" />
          </mxGeometry>
        </mxCell>
        <mxCell id="dqAtnIHSte1YufDKMeZw-327" style="shape=tableRow;horizontal=0;startSize=0;swimlaneHead=0;swimlaneBody=0;fillColor=none;collapsible=0;dropTarget=0;points=[[0,0.5],[1,0.5]];portConstraint=eastwest;top=0;left=0;right=0;bottom=0;" vertex="1" parent="dqAtnIHSte1YufDKMeZw-320">
          <mxGeometry y="90" width="180" height="30" as="geometry" />
        </mxCell>
        <mxCell id="dqAtnIHSte1YufDKMeZw-328" style="shape=partialRectangle;connectable=0;fillColor=none;top=0;left=0;bottom=0;right=0;editable=1;overflow=hidden;whiteSpace=wrap;html=1;" vertex="1" parent="dqAtnIHSte1YufDKMeZw-327">
          <mxGeometry width="30" height="30" as="geometry">
            <mxRectangle width="30" height="30" as="alternateBounds" />
          </mxGeometry>
        </mxCell>
        <mxCell id="dqAtnIHSte1YufDKMeZw-329" value="price" style="shape=partialRectangle;connectable=0;fillColor=none;top=0;left=0;bottom=0;right=0;align=left;spacingLeft=6;overflow=hidden;whiteSpace=wrap;html=1;" vertex="1" parent="dqAtnIHSte1YufDKMeZw-327">
          <mxGeometry x="30" width="150" height="30" as="geometry">
            <mxRectangle width="150" height="30" as="alternateBounds" />
          </mxGeometry>
        </mxCell>
        <mxCell id="dqAtnIHSte1YufDKMeZw-342" style="shape=tableRow;horizontal=0;startSize=0;swimlaneHead=0;swimlaneBody=0;fillColor=none;collapsible=0;dropTarget=0;points=[[0,0.5],[1,0.5]];portConstraint=eastwest;top=0;left=0;right=0;bottom=0;" vertex="1" parent="dqAtnIHSte1YufDKMeZw-320">
          <mxGeometry y="120" width="180" height="30" as="geometry" />
        </mxCell>
        <mxCell id="dqAtnIHSte1YufDKMeZw-343" style="shape=partialRectangle;connectable=0;fillColor=none;top=0;left=0;bottom=0;right=0;editable=1;overflow=hidden;whiteSpace=wrap;html=1;" vertex="1" parent="dqAtnIHSte1YufDKMeZw-342">
          <mxGeometry width="30" height="30" as="geometry">
            <mxRectangle width="30" height="30" as="alternateBounds" />
          </mxGeometry>
        </mxCell>
        <mxCell id="dqAtnIHSte1YufDKMeZw-344" value="amount" style="shape=partialRectangle;connectable=0;fillColor=none;top=0;left=0;bottom=0;right=0;align=left;spacingLeft=6;overflow=hidden;whiteSpace=wrap;html=1;" vertex="1" parent="dqAtnIHSte1YufDKMeZw-342">
          <mxGeometry x="30" width="150" height="30" as="geometry">
            <mxRectangle width="150" height="30" as="alternateBounds" />
          </mxGeometry>
        </mxCell>
        <mxCell id="dqAtnIHSte1YufDKMeZw-330" value="" style="edgeStyle=orthogonalEdgeStyle;fontSize=12;html=1;endArrow=ERoneToMany;rounded=0;" edge="1" parent="1" source="dqAtnIHSte1YufDKMeZw-321" target="dqAtnIHSte1YufDKMeZw-317">
          <mxGeometry width="100" height="100" relative="1" as="geometry">
            <mxPoint x="-790" y="-1825" as="sourcePoint" />
            <mxPoint x="-670" y="-1895" as="targetPoint" />
          </mxGeometry>
        </mxCell>
        <mxCell id="dqAtnIHSte1YufDKMeZw-331" value="report_status" style="shape=table;startSize=30;container=1;collapsible=1;childLayout=tableLayout;fixedRows=1;rowLines=0;fontStyle=1;align=center;resizeLast=1;html=1;" vertex="1" parent="1">
          <mxGeometry x="-480" y="-1850" width="180" height="90" as="geometry" />
        </mxCell>
        <mxCell id="dqAtnIHSte1YufDKMeZw-332" value="" style="shape=tableRow;horizontal=0;startSize=0;swimlaneHead=0;swimlaneBody=0;fillColor=none;collapsible=0;dropTarget=0;points=[[0,0.5],[1,0.5]];portConstraint=eastwest;top=0;left=0;right=0;bottom=1;" vertex="1" parent="dqAtnIHSte1YufDKMeZw-331">
          <mxGeometry y="30" width="180" height="30" as="geometry" />
        </mxCell>
        <mxCell id="dqAtnIHSte1YufDKMeZw-333" value="PK" style="shape=partialRectangle;connectable=0;fillColor=none;top=0;left=0;bottom=0;right=0;fontStyle=1;overflow=hidden;whiteSpace=wrap;html=1;" vertex="1" parent="dqAtnIHSte1YufDKMeZw-332">
          <mxGeometry width="30" height="30" as="geometry">
            <mxRectangle width="30" height="30" as="alternateBounds" />
          </mxGeometry>
        </mxCell>
        <mxCell id="dqAtnIHSte1YufDKMeZw-334" value="id" style="shape=partialRectangle;connectable=0;fillColor=none;top=0;left=0;bottom=0;right=0;align=left;spacingLeft=6;fontStyle=5;overflow=hidden;whiteSpace=wrap;html=1;" vertex="1" parent="dqAtnIHSte1YufDKMeZw-332">
          <mxGeometry x="30" width="150" height="30" as="geometry">
            <mxRectangle width="150" height="30" as="alternateBounds" />
          </mxGeometry>
        </mxCell>
        <mxCell id="dqAtnIHSte1YufDKMeZw-335" value="" style="shape=tableRow;horizontal=0;startSize=0;swimlaneHead=0;swimlaneBody=0;fillColor=none;collapsible=0;dropTarget=0;points=[[0,0.5],[1,0.5]];portConstraint=eastwest;top=0;left=0;right=0;bottom=0;" vertex="1" parent="dqAtnIHSte1YufDKMeZw-331">
          <mxGeometry y="60" width="180" height="30" as="geometry" />
        </mxCell>
        <mxCell id="dqAtnIHSte1YufDKMeZw-336" value="" style="shape=partialRectangle;connectable=0;fillColor=none;top=0;left=0;bottom=0;right=0;editable=1;overflow=hidden;whiteSpace=wrap;html=1;" vertex="1" parent="dqAtnIHSte1YufDKMeZw-335">
          <mxGeometry width="30" height="30" as="geometry">
            <mxRectangle width="30" height="30" as="alternateBounds" />
          </mxGeometry>
        </mxCell>
        <mxCell id="dqAtnIHSte1YufDKMeZw-337" value="name" style="shape=partialRectangle;connectable=0;fillColor=none;top=0;left=0;bottom=0;right=0;align=left;spacingLeft=6;overflow=hidden;whiteSpace=wrap;html=1;" vertex="1" parent="dqAtnIHSte1YufDKMeZw-335">
          <mxGeometry x="30" width="150" height="30" as="geometry">
            <mxRectangle width="150" height="30" as="alternateBounds" />
          </mxGeometry>
        </mxCell>
        <mxCell id="dqAtnIHSte1YufDKMeZw-341" value="" style="edgeStyle=orthogonalEdgeStyle;fontSize=12;html=1;endArrow=ERoneToMany;rounded=0;" edge="1" parent="1" source="dqAtnIHSte1YufDKMeZw-332" target="dqAtnIHSte1YufDKMeZw-348">
          <mxGeometry width="100" height="100" relative="1" as="geometry">
            <mxPoint x="-410" y="-1985" as="sourcePoint" />
            <mxPoint x="-490" y="-1925" as="targetPoint" />
          </mxGeometry>
        </mxCell>
      </root>
    </mxGraphModel>
  </diagram>
  <diagram id="KgkODUJ0Sc5yA_IvfIgl" name="Блок-схема">
    <mxGraphModel dx="1979" dy="622" grid="1" gridSize="10" guides="1" tooltips="1" connect="1" arrows="1" fold="1" page="1" pageScale="1" pageWidth="827" pageHeight="1169" math="0" shadow="0">
      <root>
        <mxCell id="0" />
        <mxCell id="1" parent="0" />
        <mxCell id="1SgMf75JU1xXMUs1IxsD-1" value="" style="rounded=0;html=1;jettySize=auto;orthogonalLoop=1;fontSize=11;endArrow=block;endFill=0;endSize=8;strokeWidth=1;shadow=0;labelBackgroundColor=none;edgeStyle=orthogonalEdgeStyle;" edge="1" parent="1" source="1SgMf75JU1xXMUs1IxsD-2" target="1SgMf75JU1xXMUs1IxsD-5">
          <mxGeometry relative="1" as="geometry">
            <mxPoint x="72.5" y="670" as="targetPoint" />
          </mxGeometry>
        </mxCell>
        <mxCell id="1SgMf75JU1xXMUs1IxsD-2" value="Клиент хочет оставить заявку" style="rounded=1;whiteSpace=wrap;html=1;fontSize=12;glass=0;strokeWidth=1;shadow=0;" vertex="1" parent="1">
          <mxGeometry x="12.5" y="580" width="120" height="40" as="geometry" />
        </mxCell>
        <mxCell id="1SgMf75JU1xXMUs1IxsD-3" value="Да" style="rounded=0;html=1;jettySize=auto;orthogonalLoop=1;fontSize=11;endArrow=block;endFill=0;endSize=8;strokeWidth=1;shadow=0;labelBackgroundColor=none;edgeStyle=orthogonalEdgeStyle;" edge="1" parent="1" source="1SgMf75JU1xXMUs1IxsD-5" target="1SgMf75JU1xXMUs1IxsD-11">
          <mxGeometry x="-0.7778" y="20" relative="1" as="geometry">
            <mxPoint as="offset" />
          </mxGeometry>
        </mxCell>
        <mxCell id="1SgMf75JU1xXMUs1IxsD-4" value="Нет" style="edgeStyle=orthogonalEdgeStyle;rounded=0;html=1;jettySize=auto;orthogonalLoop=1;fontSize=11;endArrow=block;endFill=0;endSize=8;strokeWidth=1;shadow=0;labelBackgroundColor=none;" edge="1" parent="1" source="1SgMf75JU1xXMUs1IxsD-5" target="1SgMf75JU1xXMUs1IxsD-7">
          <mxGeometry x="-0.8909" y="10" relative="1" as="geometry">
            <mxPoint as="offset" />
            <Array as="points">
              <mxPoint x="232.5" y="710" />
            </Array>
          </mxGeometry>
        </mxCell>
        <mxCell id="1SgMf75JU1xXMUs1IxsD-5" value="Клиент зарегистрирован?" style="rhombus;whiteSpace=wrap;html=1;shadow=0;fontFamily=Helvetica;fontSize=12;align=center;strokeWidth=1;spacing=6;spacingTop=-4;" vertex="1" parent="1">
          <mxGeometry y="670" width="145" height="80" as="geometry" />
        </mxCell>
        <mxCell id="1SgMf75JU1xXMUs1IxsD-6" style="edgeStyle=orthogonalEdgeStyle;rounded=0;orthogonalLoop=1;jettySize=auto;html=1;exitX=0;exitY=0.5;exitDx=0;exitDy=0;" edge="1" parent="1" source="1SgMf75JU1xXMUs1IxsD-7">
          <mxGeometry relative="1" as="geometry">
            <mxPoint x="72.5" y="770" as="targetPoint" />
          </mxGeometry>
        </mxCell>
        <mxCell id="1SgMf75JU1xXMUs1IxsD-7" value="Регистрация" style="rounded=1;whiteSpace=wrap;html=1;fontSize=12;glass=0;strokeWidth=1;shadow=0;" vertex="1" parent="1">
          <mxGeometry x="172.5" y="750" width="130" height="40" as="geometry" />
        </mxCell>
        <mxCell id="1SgMf75JU1xXMUs1IxsD-8" value="Начало" style="strokeWidth=2;html=1;shape=mxgraph.flowchart.terminator;whiteSpace=wrap;" vertex="1" parent="1">
          <mxGeometry x="22.5" y="500" width="100" height="40" as="geometry" />
        </mxCell>
        <mxCell id="1SgMf75JU1xXMUs1IxsD-9" value="Конец" style="strokeWidth=2;html=1;shape=mxgraph.flowchart.terminator;whiteSpace=wrap;" vertex="1" parent="1">
          <mxGeometry x="22.5" y="2110" width="100" height="50" as="geometry" />
        </mxCell>
        <mxCell id="1SgMf75JU1xXMUs1IxsD-10" style="edgeStyle=orthogonalEdgeStyle;rounded=0;orthogonalLoop=1;jettySize=auto;html=1;exitX=0.5;exitY=1;exitDx=0;exitDy=0;" edge="1" parent="1" source="1SgMf75JU1xXMUs1IxsD-11" target="1SgMf75JU1xXMUs1IxsD-31">
          <mxGeometry relative="1" as="geometry">
            <mxPoint x="73" y="940" as="targetPoint" />
          </mxGeometry>
        </mxCell>
        <mxCell id="1SgMf75JU1xXMUs1IxsD-11" value="Авторизация пользователя" style="rounded=1;whiteSpace=wrap;html=1;fontSize=12;glass=0;strokeWidth=1;shadow=0;" vertex="1" parent="1">
          <mxGeometry x="12.5" y="820" width="120" height="50" as="geometry" />
        </mxCell>
        <mxCell id="1SgMf75JU1xXMUs1IxsD-12" value="" style="rounded=0;html=1;jettySize=auto;orthogonalLoop=1;fontSize=11;endArrow=block;endFill=0;endSize=8;strokeWidth=1;shadow=0;labelBackgroundColor=none;edgeStyle=orthogonalEdgeStyle;" edge="1" parent="1" source="1SgMf75JU1xXMUs1IxsD-8" target="1SgMf75JU1xXMUs1IxsD-2">
          <mxGeometry relative="1" as="geometry">
            <mxPoint x="82.5" y="630" as="sourcePoint" />
            <mxPoint x="82.5" y="680" as="targetPoint" />
          </mxGeometry>
        </mxCell>
        <mxCell id="1SgMf75JU1xXMUs1IxsD-14" value="Создание заявки, описание проблемы клиентом" style="rounded=1;whiteSpace=wrap;html=1;fontSize=12;glass=0;strokeWidth=1;shadow=0;" vertex="1" parent="1">
          <mxGeometry x="12.5" y="1090" width="120" height="50" as="geometry" />
        </mxCell>
        <mxCell id="1SgMf75JU1xXMUs1IxsD-16" value="Оператор регистрирует заявку" style="rounded=1;whiteSpace=wrap;html=1;fontSize=12;glass=0;strokeWidth=1;shadow=0;" vertex="1" parent="1">
          <mxGeometry x="12.5" y="1190" width="120" height="50" as="geometry" />
        </mxCell>
        <mxCell id="1SgMf75JU1xXMUs1IxsD-18" value="Обработка оператором заявки" style="rounded=1;whiteSpace=wrap;html=1;fontSize=12;glass=0;strokeWidth=1;shadow=0;" vertex="1" parent="1">
          <mxGeometry x="7.5" y="1457.5" width="130" height="65" as="geometry" />
        </mxCell>
        <mxCell id="1SgMf75JU1xXMUs1IxsD-19" style="edgeStyle=orthogonalEdgeStyle;rounded=0;orthogonalLoop=1;jettySize=auto;html=1;" edge="1" parent="1" source="1SgMf75JU1xXMUs1IxsD-20" target="1SgMf75JU1xXMUs1IxsD-22">
          <mxGeometry relative="1" as="geometry" />
        </mxCell>
        <mxCell id="1SgMf75JU1xXMUs1IxsD-20" value="Оператор передаёт заявку в работу исполнителю" style="rounded=1;whiteSpace=wrap;html=1;fontSize=12;glass=0;strokeWidth=1;shadow=0;" vertex="1" parent="1">
          <mxGeometry x="7.5" y="1590" width="130" height="65" as="geometry" />
        </mxCell>
        <mxCell id="1SgMf75JU1xXMUs1IxsD-21" style="edgeStyle=orthogonalEdgeStyle;rounded=0;orthogonalLoop=1;jettySize=auto;html=1;" edge="1" parent="1" source="1SgMf75JU1xXMUs1IxsD-22" target="1SgMf75JU1xXMUs1IxsD-25">
          <mxGeometry relative="1" as="geometry" />
        </mxCell>
        <mxCell id="1SgMf75JU1xXMUs1IxsD-22" value="Исполнитель начинает работу" style="rounded=1;whiteSpace=wrap;html=1;fontSize=12;glass=0;strokeWidth=1;shadow=0;" vertex="1" parent="1">
          <mxGeometry x="3.75" y="1721" width="137.5" height="65" as="geometry" />
        </mxCell>
        <mxCell id="1SgMf75JU1xXMUs1IxsD-25" value="Требуются доп.&lt;div&gt;запчасти?&lt;/div&gt;" style="rhombus;whiteSpace=wrap;html=1;shadow=0;fontFamily=Helvetica;fontSize=12;align=center;strokeWidth=1;spacing=6;spacingTop=-4;" vertex="1" parent="1">
          <mxGeometry x="-12.5" y="1840" width="170" height="80" as="geometry" />
        </mxCell>
        <mxCell id="1SgMf75JU1xXMUs1IxsD-27" value="Дозаказ запчастей" style="rounded=1;whiteSpace=wrap;html=1;fontSize=12;glass=0;strokeWidth=1;shadow=0;" vertex="1" parent="1">
          <mxGeometry x="250" y="1847.5" width="137.5" height="65" as="geometry" />
        </mxCell>
        <mxCell id="1SgMf75JU1xXMUs1IxsD-28" style="edgeStyle=orthogonalEdgeStyle;rounded=0;orthogonalLoop=1;jettySize=auto;html=1;" edge="1" parent="1" source="1SgMf75JU1xXMUs1IxsD-29" target="1SgMf75JU1xXMUs1IxsD-9">
          <mxGeometry relative="1" as="geometry" />
        </mxCell>
        <mxCell id="1SgMf75JU1xXMUs1IxsD-29" value="Передача продукции клиенту, подведение отчёта" style="rounded=1;whiteSpace=wrap;html=1;fontSize=12;glass=0;strokeWidth=1;shadow=0;" vertex="1" parent="1">
          <mxGeometry x="3.75" y="1990" width="137.5" height="65" as="geometry" />
        </mxCell>
        <mxCell id="1SgMf75JU1xXMUs1IxsD-31" value="Пользователь авторизирован?" style="rhombus;whiteSpace=wrap;html=1;shadow=0;fontFamily=Helvetica;fontSize=12;align=center;strokeWidth=1;spacing=6;spacingTop=-4;" vertex="1" parent="1">
          <mxGeometry y="940" width="145" height="80" as="geometry" />
        </mxCell>
        <mxCell id="1SgMf75JU1xXMUs1IxsD-32" style="edgeStyle=orthogonalEdgeStyle;rounded=0;orthogonalLoop=1;jettySize=auto;html=1;" edge="1" parent="1" source="1SgMf75JU1xXMUs1IxsD-31" target="1SgMf75JU1xXMUs1IxsD-14">
          <mxGeometry relative="1" as="geometry">
            <mxPoint x="160" y="1020" as="targetPoint" />
            <mxPoint x="260.5" y="1020" as="sourcePoint" />
          </mxGeometry>
        </mxCell>
        <mxCell id="1SgMf75JU1xXMUs1IxsD-33" value="Да" style="edgeLabel;html=1;align=center;verticalAlign=middle;resizable=0;points=[];" vertex="1" connectable="0" parent="1SgMf75JU1xXMUs1IxsD-32">
          <mxGeometry x="-0.2641" y="1" relative="1" as="geometry">
            <mxPoint as="offset" />
          </mxGeometry>
        </mxCell>
        <mxCell id="ADMBioDCFcwgZLnfp1iO-1" style="edgeStyle=orthogonalEdgeStyle;rounded=0;orthogonalLoop=1;jettySize=auto;html=1;" edge="1" parent="1" source="1SgMf75JU1xXMUs1IxsD-31" target="1SgMf75JU1xXMUs1IxsD-11">
          <mxGeometry relative="1" as="geometry">
            <mxPoint x="230" y="840" as="targetPoint" />
            <mxPoint x="83" y="1030" as="sourcePoint" />
            <Array as="points">
              <mxPoint x="231" y="980" />
              <mxPoint x="231" y="840" />
            </Array>
          </mxGeometry>
        </mxCell>
        <mxCell id="ADMBioDCFcwgZLnfp1iO-2" value="Нет" style="edgeLabel;html=1;align=center;verticalAlign=middle;resizable=0;points=[];" vertex="1" connectable="0" parent="ADMBioDCFcwgZLnfp1iO-1">
          <mxGeometry x="-0.2641" y="1" relative="1" as="geometry">
            <mxPoint y="-47" as="offset" />
          </mxGeometry>
        </mxCell>
        <mxCell id="ADMBioDCFcwgZLnfp1iO-4" value="Заявка зарегестрирована?" style="rhombus;whiteSpace=wrap;html=1;shadow=0;fontFamily=Helvetica;fontSize=12;align=center;strokeWidth=1;spacing=6;spacingTop=-4;" vertex="1" parent="1">
          <mxGeometry y="1302.5" width="145" height="80" as="geometry" />
        </mxCell>
        <mxCell id="ADMBioDCFcwgZLnfp1iO-5" style="edgeStyle=orthogonalEdgeStyle;rounded=0;orthogonalLoop=1;jettySize=auto;html=1;" edge="1" parent="1" source="ADMBioDCFcwgZLnfp1iO-4" target="1SgMf75JU1xXMUs1IxsD-18">
          <mxGeometry relative="1" as="geometry">
            <mxPoint x="73" y="1550" as="targetPoint" />
            <mxPoint x="170" y="1330" as="sourcePoint" />
          </mxGeometry>
        </mxCell>
        <mxCell id="ADMBioDCFcwgZLnfp1iO-6" value="Да" style="edgeLabel;html=1;align=center;verticalAlign=middle;resizable=0;points=[];" vertex="1" connectable="0" parent="ADMBioDCFcwgZLnfp1iO-5">
          <mxGeometry x="-0.2641" y="1" relative="1" as="geometry">
            <mxPoint as="offset" />
          </mxGeometry>
        </mxCell>
        <mxCell id="ADMBioDCFcwgZLnfp1iO-7" value="" style="endArrow=classic;html=1;rounded=0;" edge="1" parent="1" source="1SgMf75JU1xXMUs1IxsD-14" target="1SgMf75JU1xXMUs1IxsD-16">
          <mxGeometry width="50" height="50" relative="1" as="geometry">
            <mxPoint x="300" y="1340" as="sourcePoint" />
            <mxPoint x="350" y="1290" as="targetPoint" />
          </mxGeometry>
        </mxCell>
        <mxCell id="ADMBioDCFcwgZLnfp1iO-8" value="" style="endArrow=classic;html=1;rounded=0;" edge="1" parent="1" source="1SgMf75JU1xXMUs1IxsD-16" target="ADMBioDCFcwgZLnfp1iO-4">
          <mxGeometry width="50" height="50" relative="1" as="geometry">
            <mxPoint x="30" y="1230" as="sourcePoint" />
            <mxPoint x="83" y="1270" as="targetPoint" />
          </mxGeometry>
        </mxCell>
        <mxCell id="ADMBioDCFcwgZLnfp1iO-9" value="" style="endArrow=classic;html=1;rounded=0;" edge="1" parent="1" source="1SgMf75JU1xXMUs1IxsD-18" target="1SgMf75JU1xXMUs1IxsD-20">
          <mxGeometry width="50" height="50" relative="1" as="geometry">
            <mxPoint x="83" y="1320" as="sourcePoint" />
            <mxPoint x="83" y="1400" as="targetPoint" />
          </mxGeometry>
        </mxCell>
        <mxCell id="ADMBioDCFcwgZLnfp1iO-12" style="edgeStyle=orthogonalEdgeStyle;rounded=0;orthogonalLoop=1;jettySize=auto;html=1;" edge="1" parent="1" source="1SgMf75JU1xXMUs1IxsD-18">
          <mxGeometry relative="1" as="geometry">
            <mxPoint x="70" y="1280" as="targetPoint" />
            <mxPoint x="123.28" y="1477.5" as="sourcePoint" />
            <Array as="points">
              <mxPoint x="210" y="1478" />
              <mxPoint x="210" y="1280" />
            </Array>
          </mxGeometry>
        </mxCell>
        <mxCell id="ADMBioDCFcwgZLnfp1iO-13" value="Нет" style="edgeLabel;html=1;align=center;verticalAlign=middle;resizable=0;points=[];" vertex="1" connectable="0" parent="ADMBioDCFcwgZLnfp1iO-12">
          <mxGeometry x="-0.2641" y="1" relative="1" as="geometry">
            <mxPoint y="-47" as="offset" />
          </mxGeometry>
        </mxCell>
        <mxCell id="ADMBioDCFcwgZLnfp1iO-15" style="edgeStyle=orthogonalEdgeStyle;rounded=0;orthogonalLoop=1;jettySize=auto;html=1;" edge="1" parent="1" source="1SgMf75JU1xXMUs1IxsD-25" target="1SgMf75JU1xXMUs1IxsD-29">
          <mxGeometry relative="1" as="geometry">
            <mxPoint x="330" y="1922.5" as="targetPoint" />
            <mxPoint x="330" y="1847.5" as="sourcePoint" />
          </mxGeometry>
        </mxCell>
        <mxCell id="ADMBioDCFcwgZLnfp1iO-16" value="Нет" style="edgeLabel;html=1;align=center;verticalAlign=middle;resizable=0;points=[];" vertex="1" connectable="0" parent="ADMBioDCFcwgZLnfp1iO-15">
          <mxGeometry x="-0.2641" y="1" relative="1" as="geometry">
            <mxPoint as="offset" />
          </mxGeometry>
        </mxCell>
        <mxCell id="ADMBioDCFcwgZLnfp1iO-17" style="edgeStyle=orthogonalEdgeStyle;rounded=0;orthogonalLoop=1;jettySize=auto;html=1;" edge="1" parent="1" source="1SgMf75JU1xXMUs1IxsD-25" target="1SgMf75JU1xXMUs1IxsD-27">
          <mxGeometry relative="1" as="geometry">
            <mxPoint x="248.75" y="1879.76" as="targetPoint" />
            <mxPoint x="180" y="1879.76" as="sourcePoint" />
          </mxGeometry>
        </mxCell>
        <mxCell id="ADMBioDCFcwgZLnfp1iO-18" value="Да" style="edgeLabel;html=1;align=center;verticalAlign=middle;resizable=0;points=[];" vertex="1" connectable="0" parent="ADMBioDCFcwgZLnfp1iO-17">
          <mxGeometry x="-0.2641" y="1" relative="1" as="geometry">
            <mxPoint as="offset" />
          </mxGeometry>
        </mxCell>
        <mxCell id="ADMBioDCFcwgZLnfp1iO-19" style="edgeStyle=orthogonalEdgeStyle;rounded=0;orthogonalLoop=1;jettySize=auto;html=1;" edge="1" parent="1" source="1SgMf75JU1xXMUs1IxsD-27">
          <mxGeometry relative="1" as="geometry">
            <mxPoint x="83" y="2065" as="sourcePoint" />
            <mxPoint x="70" y="1690" as="targetPoint" />
            <Array as="points">
              <mxPoint x="279" y="1690" />
              <mxPoint x="90" y="1690" />
            </Array>
          </mxGeometry>
        </mxCell>
      </root>
    </mxGraphModel>
  </diagram>
  <diagram id="qdxZU6N5j4sj8uuecb5e" name="Функция-Алгоритм">
    <mxGraphModel dx="2257" dy="772" grid="1" gridSize="10" guides="1" tooltips="1" connect="1" arrows="1" fold="1" page="1" pageScale="1" pageWidth="827" pageHeight="1169" math="0" shadow="0">
      <root>
        <mxCell id="0" />
        <mxCell id="1" parent="0" />
        <mxCell id="aQIliZb2Xw9sR_H_dtug-74" value="" style="rounded=0;html=1;jettySize=auto;orthogonalLoop=1;fontSize=11;endArrow=block;endFill=0;endSize=8;strokeWidth=1;shadow=0;labelBackgroundColor=none;edgeStyle=orthogonalEdgeStyle;" edge="1" parent="1" source="aQIliZb2Xw9sR_H_dtug-75" target="aQIliZb2Xw9sR_H_dtug-80">
          <mxGeometry relative="1" as="geometry">
            <mxPoint x="85" y="530" as="targetPoint" />
          </mxGeometry>
        </mxCell>
        <mxCell id="aQIliZb2Xw9sR_H_dtug-75" value="Получение данных обо всех заявках" style="rounded=1;whiteSpace=wrap;html=1;fontSize=12;glass=0;strokeWidth=1;shadow=0;" vertex="1" parent="1">
          <mxGeometry x="11" y="430" width="149" height="59" as="geometry" />
        </mxCell>
        <mxCell id="aQIliZb2Xw9sR_H_dtug-76" value="Начало" style="strokeWidth=2;html=1;shape=mxgraph.flowchart.terminator;whiteSpace=wrap;" vertex="1" parent="1">
          <mxGeometry x="35" y="340" width="100" height="40" as="geometry" />
        </mxCell>
        <mxCell id="aQIliZb2Xw9sR_H_dtug-77" value="Конец" style="strokeWidth=2;html=1;shape=mxgraph.flowchart.terminator;whiteSpace=wrap;" vertex="1" parent="1">
          <mxGeometry x="35" y="770" width="100" height="40" as="geometry" />
        </mxCell>
        <mxCell id="aQIliZb2Xw9sR_H_dtug-78" value="" style="rounded=0;html=1;jettySize=auto;orthogonalLoop=1;fontSize=11;endArrow=block;endFill=0;endSize=8;strokeWidth=1;shadow=0;labelBackgroundColor=none;edgeStyle=orthogonalEdgeStyle;" edge="1" parent="1" source="aQIliZb2Xw9sR_H_dtug-76" target="aQIliZb2Xw9sR_H_dtug-75">
          <mxGeometry relative="1" as="geometry">
            <mxPoint x="95" y="490" as="sourcePoint" />
            <mxPoint x="95" y="540" as="targetPoint" />
          </mxGeometry>
        </mxCell>
        <mxCell id="aQIliZb2Xw9sR_H_dtug-79" style="edgeStyle=orthogonalEdgeStyle;rounded=0;orthogonalLoop=1;jettySize=auto;html=1;endArrow=block;endFill=0;" edge="1" parent="1" source="aQIliZb2Xw9sR_H_dtug-80" target="aQIliZb2Xw9sR_H_dtug-82">
          <mxGeometry relative="1" as="geometry" />
        </mxCell>
        <mxCell id="aQIliZb2Xw9sR_H_dtug-80" value="Сортировка данных по типам неисправностей и приоритета заявки" style="rounded=1;whiteSpace=wrap;html=1;fontSize=12;glass=0;strokeWidth=1;shadow=0;" vertex="1" parent="1">
          <mxGeometry x="-5" y="530" width="180" height="80" as="geometry" />
        </mxCell>
        <mxCell id="aQIliZb2Xw9sR_H_dtug-81" style="edgeStyle=orthogonalEdgeStyle;rounded=0;orthogonalLoop=1;jettySize=auto;html=1;endArrow=block;endFill=0;" edge="1" parent="1" source="aQIliZb2Xw9sR_H_dtug-82" target="aQIliZb2Xw9sR_H_dtug-77">
          <mxGeometry relative="1" as="geometry" />
        </mxCell>
        <mxCell id="aQIliZb2Xw9sR_H_dtug-82" value="Сохранение данных в документный отчёт" style="rounded=1;whiteSpace=wrap;html=1;fontSize=12;glass=0;strokeWidth=1;shadow=0;" vertex="1" parent="1">
          <mxGeometry x="-4.5" y="660" width="180" height="70" as="geometry" />
        </mxCell>
      </root>
    </mxGraphModel>
  </diagram>
</mxfile>
